<svg xmlns="http://www.w3.org/2000/svg" xmlns:xlink="http://www.w3.org/1999/xlink" width="731.368" height="65.884" viewBox="0 0 193.50789 17.431808"><defs><linearGradient id="a"><stop offset="0" stop-color="#00989f"/><stop offset="1" stop-color="#009b4d"/></linearGradient><linearGradient xlink:href="#a" id="b" x1="6.086" y1="32.721" x2="202.769" y2="14.2" gradientUnits="userSpaceOnUse"/><linearGradient xlink:href="#a" id="c" gradientUnits="userSpaceOnUse" x1="6.086" y1="32.721" x2="202.769" y2="14.2"/><linearGradient xlink:href="#a" id="d" gradientUnits="userSpaceOnUse" x1="6.086" y1="32.721" x2="202.769" y2="14.2"/><linearGradient xlink:href="#a" id="e" gradientUnits="userSpaceOnUse" x1="6.086" y1="32.721" x2="202.769" y2="14.2"/><linearGradient xlink:href="#a" id="f" gradientUnits="userSpaceOnUse" x1="6.086" y1="32.721" x2="202.769" y2="14.2"/><linearGradient xlink:href="#a" id="g" gradientUnits="userSpaceOnUse" x1="6.086" y1="32.721" x2="202.769" y2="14.2"/><linearGradient xlink:href="#a" id="h" gradientUnits="userSpaceOnUse" x1="6.086" y1="32.721" x2="202.769" y2="14.2"/><linearGradient xlink:href="#a" id="i" gradientUnits="userSpaceOnUse" x1="6.086" y1="32.721" x2="202.769" y2="14.2"/><linearGradient xlink:href="#a" id="j" gradientUnits="userSpaceOnUse" x1="6.086" y1="32.721" x2="202.769" y2="14.2"/><linearGradient xlink:href="#a" id="k" gradientUnits="userSpaceOnUse" x1="6.086" y1="32.721" x2="202.769" y2="14.2"/><linearGradient xlink:href="#a" id="l" gradientUnits="userSpaceOnUse" x1="6.086" y1="32.721" x2="202.769" y2="14.2"/><linearGradient xlink:href="#a" id="m" gradientUnits="userSpaceOnUse" x1="6.086" y1="32.721" x2="202.769" y2="14.2"/></defs><g letter-spacing="0" word-spacing="0" stroke-width=".265"><g style="line-height:1.25;-inkscape-font-specification:'Gotham Pro Bold'" font-weight="700" font-size="24.077" font-family="Gotham Pro" fill="url(#b)" transform="translate(-7.938 -14.48)"><path d="M7.938 31.623V14.77h3.708v16.854z" style="-inkscape-font-specification:'Gotham Pro Bold'" fill="url(#c)"/><path d="M15.858 31.623V14.77h3.419l7.897 10.377V14.77h3.66v16.854H27.68L19.518 20.91v10.714z" style="-inkscape-font-specification:'Gotham Pro Bold'" fill="url(#d)"/><path d="M34.856 31.623V14.77h3.708v6.67h6.838v-6.67h3.708v16.854h-3.708v-6.765h-6.838v6.765z" style="-inkscape-font-specification:'Gotham Pro Bold'" fill="url(#e)"/><path d="M67.74 29.384q-2.552 2.528-6.405 2.528-3.852 0-6.404-2.528-2.528-2.528-2.528-6.188 0-3.635 2.552-6.163 2.576-2.553 6.428-2.553 3.853 0 6.38 2.528 2.553 2.529 2.553 6.188 0 3.636-2.576 6.188zm-10.016-2.432q1.444 1.541 3.66 1.541 2.215 0 3.635-1.517 1.42-1.54 1.42-3.78 0-2.215-1.444-3.756-1.445-1.54-3.66-1.54T57.7 19.44q-1.42 1.517-1.42 3.756 0 2.215 1.444 3.756z" style="-inkscape-font-specification:'Gotham Pro Bold'" fill="url(#f)"/><path d="M80.636 31.888q-3.443 0-5.37-1.902Q73.34 28.06 73.34 24.4v-9.63h3.708v9.534q0 2.022.94 3.106.962 1.06 2.696 1.06 1.733 0 2.672-1.036.964-1.036.964-3.01V14.77h3.707v9.51q0 3.757-1.974 5.683-1.95 1.926-5.417 1.926z" style="-inkscape-font-specification:'Gotham Pro Bold'" fill="url(#g)"/><path d="M97.8 31.864q-4.142 0-7.152-2.697l2.191-2.624q2.48 2.047 5.033 2.047 1.131 0 1.781-.434.65-.433.65-1.204 0-.722-.674-1.155-.674-.458-2.72-.988-1.445-.36-2.336-.698-.89-.361-1.71-.939-.794-.578-1.18-1.444-.36-.891-.36-2.12 0-2.287 1.637-3.683 1.661-1.397 4.261-1.397 3.588 0 6.26 2.143l-1.926 2.793q-2.383-1.661-4.382-1.661-1.035 0-1.613.433-.554.41-.554 1.084 0 .818.699 1.228.698.41 2.937.987 2.745.722 4.045 1.854 1.3 1.131 1.3 3.25 0 2.456-1.71 3.853-1.685 1.372-4.478 1.372z" style="-inkscape-font-specification:'Gotham Pro Bold'" fill="url(#h)"/><path d="M107.228 31.623V14.77h12.713v3.299h-9.029v3.419h7.946v3.298h-7.946v3.54h9.15v3.298z" style="-inkscape-font-specification:'Gotham Pro Bold'" fill="url(#i)"/><path d="M135.054 31.744L129.3 14.769h3.973l3.49 11.413 3.781-11.46h3.178l3.78 11.46 3.491-11.413h3.877l-5.755 16.975h-3.226l-3.804-11.028-3.804 11.028z" style="-inkscape-font-specification:'Gotham Pro Bold'" fill="url(#j)"/><path d="M153.985 31.623l7.223-16.974h3.42l7.222 16.974h-3.876l-1.541-3.78h-7.127l-1.54 3.78zm6.645-7.054h4.479l-2.24-5.466z" style="-inkscape-font-specification:'Gotham Pro Bold'" fill="url(#k)"/><path d="M174.428 31.623V14.77h3.708v13.483h8.403v3.371z" style="-inkscape-font-specification:'Gotham Pro Bold'" fill="url(#l)"/><path d="M189.335 31.623V14.77h3.708v13.483h8.403v3.371z" style="-inkscape-font-specification:'Gotham Pro Bold'" fill="url(#m)"/></g><text style="line-height:1.25" x="57.415" y="97.24" font-weight="400" font-size="10.583" font-family="sans-serif" transform="translate(-7.938 -14.48)"/></g></svg>