<svg xmlns="http://www.w3.org/2000/svg" width="27" height="24" viewBox="0 0 27 24"><path d="M13.5 10.68c-.55 0-1 .47-1 1.05v7.47c0 .57.45 1.04 1 1.04s1-.47 1-1.04v-7.47c0-.58-.45-1.05-1-1.05zM26 13.4h-4.88v-1.34h1.26a2.93 2.93 0 0 0 2.85-3v-2.8c0-.58-.45-1.05-1-1.05-.54 0-.99.47-.99 1.05v2.8c0 .5-.39.91-.86.91h-1.25V8.6c0-.8-.62-1.46-1.4-1.46h-1.3V5.2A5.07 5.07 0 0 0 13.5 0a5.07 5.07 0 0 0-4.93 5.19c0 .57.44 1.04 1 1.04.54 0 .99-.47.99-1.04 0-1.7 1.32-3.1 2.94-3.1 1.63 0 2.95 1.4 2.95 3.1v1.95h-9.2c-.76 0-1.38.65-1.38 1.46v1.36H4.62a.88.88 0 0 1-.87-.9V6.24c0-.58-.44-1.05-.99-1.05s-1 .47-1 1.05v2.8c0 1.65 1.28 3 2.86 3h1.25v1.34H.99c-.54 0-.99.47-.99 1.04 0 .58.45 1.05 1 1.05h4.88v.5c0 .28 0 .56.03.83h-1.3a2.93 2.93 0 0 0-2.84 3v2.8c0 .58.44 1.05 1 1.05.54 0 .98-.47.98-1.05v-2.8c0-.5.4-.91.87-.91h1.77A7.66 7.66 0 0 0 13.5 24c3.23 0 6-2.12 7.1-5.1h1.78c.48 0 .87.4.87.9v2.81c0 .58.44 1.05.99 1.05s1-.47 1-1.05v-2.8c0-1.66-1.28-3-2.86-3h-1.3c.03-.27.05-.55.05-.83v-.5H26c.54 0 .99-.47.99-1.05 0-.57-.44-1.04-1-1.04zm-6.86 2.58c0 3.27-2.53 5.93-5.64 5.93-3.1 0-5.64-2.65-5.64-5.93V9.23h11.28z"/></svg>