<svg xmlns="http://www.w3.org/2000/svg" width="30" height="27" viewBox="0 0 30 27"><path d="M29.34 17.62h-4.39v-3.35a.87.87 0 0 0-.22-.59l-9.29-9.55a.6.6 0 0 0-.88 0l-9.29 9.55a.9.9 0 0 0-.22.6v3.34H.66c-.36 0-.66.35-.66.78v7.82c0 .43.3.78.66.78h28.68c.36 0 .66-.35.66-.78V18.4c0-.43-.3-.78-.66-.78zM5.05 25.43H1.33v-6.25h3.72zM15 5.76l7.52 7.73H7.48zm-3.38 19.67v-3.88h6.76v3.88zm12.01 0H19.7v-4.66c0-.44-.3-.79-.66-.79h-8.08c-.36 0-.66.35-.66.79v4.66H6.37V15.05h17.26v10.38zm5.04 0h-3.72v-6.25h3.72zM3.26 14.86L15 2.8l11.74 12.07c.28.29.7.25.94-.07a.88.88 0 0 0-.07-1.1L15.44 1.15a.6.6 0 0 0-.88 0L2.39 13.68a.88.88 0 0 0-.07 1.1c.24.33.66.37.94.08z"/></svg>