<svg xmlns="http://www.w3.org/2000/svg" width="28" height="27" viewBox="0 0 28 27"><path d="M27.18 15.87h-.79v-.79a.8.8 0 0 0-.79-.79h-3.17a.8.8 0 0 0-.8.8v.78H20V6.38h.8a.8.8 0 0 0 .55-.23l1.59-1.58a.8.8 0 0 0 .23-.56V.79a.8.8 0 0 0-.8-.79h-3.16a.8.8 0 0 0-.8.8v.78h-1.58V.8a.8.8 0 0 0-.8-.79h-3.16a.8.8 0 0 0-.8.8v.78H10.5V.8a.8.8 0 0 0-.8-.79H6.54a.8.8 0 0 0-.8.8V4c0 .22.09.42.24.57l1.58 1.58a.8.8 0 0 0 .56.23h.8v9.5H7.31v-.8a.8.8 0 0 0-.8-.79H3.3a.8.8 0 0 0-.79.8v.78h-.79a.8.8 0 0 0-.8.8v9.54c0 .44.36.79.8.79h25.46a.8.8 0 0 0 .8-.8v-9.54a.8.8 0 0 0-.8-.79zM8.44 4.8L7.32 3.68v-2.1h1.59v.8c0 .43.35.78.79.78h3.17a.8.8 0 0 0 .79-.79v-.79h1.59v.8c0 .43.35.78.79.78h3.17a.8.8 0 0 0 .79-.79v-.79h1.59v2.1L20.46 4.8zm4.43 9.5h-2.38V6.37h7.92v7.91h-2.37a.8.8 0 0 0-.8.8v.78h-1.58v-.79a.8.8 0 0 0-.8-.79zm3.96 11.12h-4.75v-2.43a2.38 2.38 0 0 1 4.75 0zm9.56 0h-7.97v-2.43a3.96 3.96 0 0 0-7.93 0v2.43H2.51v-7.96h.8a.8.8 0 0 0 .79-.8v-.79h1.64v.8c0 .43.35.78.79.78H9.7c.44 0 .79-.35.79-.79v-.79h1.59v.8c0 .43.35.79.79.79h3.17a.8.8 0 0 0 .79-.8v-.79h1.59v.8c0 .43.35.78.79.78h3.22c.44 0 .8-.35.8-.79v-.79h1.58v.8c0 .43.35.79.79.79h.8zM8.11 19.04H4.9a.8.8 0 0 0-.8.79v3.16c0 .44.36.8.8.8h3.22a.8.8 0 0 0 .8-.8v-3.16a.8.8 0 0 0-.8-.8zm-.79 3.16H5.68v-1.58h1.64zm16.7-3.16h-3.23a.8.8 0 0 0-.79.79v3.16c0 .44.36.8.8.8H24a.8.8 0 0 0 .8-.8v-3.16a.8.8 0 0 0-.8-.8zm-.8 3.16h-1.64v-1.58h1.64zM14.45 7.96a2.38 2.38 0 0 0-2.37 2.38v1.58c0 .44.35.79.79.79h3.17a.8.8 0 0 0 .79-.8v-1.57c0-1.31-1.07-2.38-2.38-2.38zm.8 3.17h-1.59v-.8a.8.8 0 0 1 1.59 0z"/></svg>