<svg xmlns="http://www.w3.org/2000/svg" width="30" height="24" viewBox="0 0 30 24"><path d="M28.98 1.58H25.8a.97.97 0 0 0-.97.95v2.2h-1.25V2.87c0-1.58-1.3-2.87-2.89-2.87h-.92c-.73 0-1.41.28-1.92.73A2.9 2.9 0 0 0 15.92 0H15c-.74 0-1.41.28-1.92.73A2.9 2.9 0 0 0 11.15 0h-.92c-.74 0-1.41.28-1.92.73A2.9 2.9 0 0 0 6.38 0h-.92a2.88 2.88 0 0 0-2.89 2.87v1.86h-.62a.97.97 0 0 0-.97.96c0 .53.44.96.97.96h.62v9.13h-.62a.97.97 0 0 0-.97.95c0 .53.44.96.97.96h.62v3.44c0 1.58 1.3 2.87 2.9 2.87h.91a2.9 2.9 0 0 0 1.93-.73 2.9 2.9 0 0 0 1.93.73h.91a2.9 2.9 0 0 0 1.93-.73 2.9 2.9 0 0 0 1.93.73h.91a2.9 2.9 0 0 0 1.93-.73 2.9 2.9 0 0 0 1.93.73h.91a2.88 2.88 0 0 0 2.89-2.87V17.7h.62a3 3 0 0 1 1.21.32c.69.36 1.01.96 1.01 1.88a.97.97 0 0 0 1.93 0c0-3.02-2.48-4.11-4.14-4.11h-.63V6.65h1.25v.62c0 .53.44.95.97.95h3.18c.53 0 .96-.42.96-.95V2.53a.96.96 0 0 0-.96-.95zm-22.6 20.5h-.91a.96.96 0 0 1-.97-.95V2.87c0-.53.43-.96.97-.96h.91c.53 0 .96.43.96.96v18.26c0 .53-.43.96-.96.96zm4.77 0h-.92a.96.96 0 0 1-.96-.95V2.87c0-.53.43-.96.96-.96h.92c.53 0 .96.43.96.96v18.26c0 .53-.43.96-.96.96zm4.77 0h-.91a.96.96 0 0 1-.97-.95V2.87c0-.53.43-.96.97-.96h.91c.53 0 .96.43.96.96v18.26c0 .53-.43.96-.96.96zm5.73-.95c0 .53-.43.96-.96.96h-.91a.96.96 0 0 1-.97-.96V2.87c0-.53.43-.96.97-.96h.91c.53 0 .96.43.96.96zm6.36-14.82h-1.25V3.5h1.25z"/></svg>