<svg xmlns="http://www.w3.org/2000/svg" width="28" height="30" viewBox="0 0 28 30"><path d="M26.24 18.86h-3.69v-4.37h3.13c.72 0 1.09-.88.57-1.38L13.82.98a.82.82 0 0 0-1.14 0L.26 13.11a.8.8 0 0 0 .57 1.38h3.13v14.36c0 .44.36.8.81.8h5.45a.8.8 0 0 0 .81-.8v-5.93h4.45v5.93c0 .44.36.8.81.8h9.95a.8.8 0 0 0 .81-.8v-9.19a.8.8 0 0 0-.81-.8zm-7.98.8v8.38H17.1v-5.93a.8.8 0 0 0-.81-.8h-6.07a.82.82 0 0 0-.82.8v5.93H5.58V13.68a.8.8 0 0 0-.81-.8H2.82L13.25 2.69l10.44 10.19h-1.95a.82.82 0 0 0-.82.8v5.18h-1.84a.82.82 0 0 0-.82.8zm7.16 8.38h-5.53v-1.45h5.53zm0-3.06h-5.53v-1.45h5.53zm0-3.06h-5.53v-1.45h5.53z"/></svg>