<svg xmlns="http://www.w3.org/2000/svg" width="51" height="43" viewBox="0 0 51 43"><path d="M50.34 36.19L29.84 2.17a4.51 4.51 0 0 0-7.7 0L1.65 36.2A4.5 4.5 0 0 0 5.5 43h41a4.5 4.5 0 0 0 3.85-6.81zm-2.77 2.93c-.22.38-.63.62-1.07.62H5.49a1.24 1.24 0 0 1-1.06-1.87l20.5-34.02a1.24 1.24 0 0 1 2.12 0l20.5 34.02c.24.38.24.86.02 1.25zM26.01 13.39c-1.24 0-2.2.67-2.2 1.85 0 3.6.42 8.76.42 12.35 0 .94.81 1.33 1.78 1.33.72 0 1.75-.4 1.75-1.33 0-3.6.42-8.76.42-12.35 0-1.18-1-1.85-2.17-1.85zM26.04 31a2.33 2.33 0 0 0 0 4.65c1.24 0 2.3-1.08 2.3-2.32a2.34 2.34 0 0 0-2.3-2.33z"/></svg>