<svg xmlns="http://www.w3.org/2000/svg" width="29" height="27" viewBox="0 0 29 27"><path d="M28.72 13.47l-2.87-2.8V4.61c0-.5-.42-.92-.95-.92h-3.78a.93.93 0 0 0-.94.92v.54L15.17.28a.97.97 0 0 0-1.34 0L.28 13.47a.9.9 0 0 0 0 1.3c.37.36.97.36 1.34 0l1.54-1.5v12.81c0 .5.42.92.94.92h20.8c.53 0 .95-.41.95-.92v-12.8l1.54 1.49c.37.36.96.36 1.33 0a.9.9 0 0 0 0-1.3zM5.05 25.16V11.43l9.45-9.2 9.46 9.2v13.73zM23.96 8.83l-1.89-1.84V5.53h1.89zM10.72 13.8c0 .5.42.92.95.92.52 0 .94-.41.94-.92 0-.5-.42-.92-.94-.92a.93.93 0 0 0-.95.92zM21.16 19l-.95-.92a.93.93 0 0 0-.66-.27h-1.26v-1.23a.9.9 0 0 0-.28-.65l-1.65-1.6.03-.5c0-2.55-2.12-4.6-4.72-4.6a4.67 4.67 0 0 0-4.73 4.6 4.67 4.67 0 0 0 5.25 4.56l4.8 4.67c.17.17.41.27.66.27h2.84c.52 0 .95-.41.95-.92v-2.76a.9.9 0 0 0-.28-.65zm-3.11 2.49l-4.87-4.74a.96.96 0 0 0-.88-.25 2.8 2.8 0 0 1-3.47-2.68 2.8 2.8 0 0 1 2.84-2.76 2.8 2.8 0 0 1 2.76 3.38c-.08.3.02.63.25.85l1.71 1.67v1.77c0 .5.43.92.95.92h1.81l.4.38v1.46z"/></svg>