<svg xmlns="http://www.w3.org/2000/svg" width="25" height="24" viewBox="0 0 25 24"><path d="M23.83.04c-.47.02-11.62.44-16.68 5.5-6.08 6.08-3.85 10.82-2.2 12.95l-3.64 3.64a1.1 1.1 0 1 0 1.55 1.55l3.64-3.64a7.84 7.84 0 0 0 4.94 1.78c2.68 0 5.38-1.33 8.02-3.98 5.06-5.05 5.48-16.2 5.5-16.67L25 0zM17.92 16.3c-2.2 2.19-4.43 3.35-6.48 3.35-1.2 0-2.34-.4-3.38-1.16l2.58-2.58 4.4 1.06a1.1 1.1 0 0 0 .51-2.13l-3.1-.75 2.22-2.2 2.39.54a1.1 1.1 0 0 0 .49-2.13l-1.05-.24 2.82-2.82a1.1 1.1 0 1 0-1.55-1.55l-2.84 2.84-.25-1.1a1.1 1.1 0 1 0-2.13.49l.56 2.43-2.21 2.21-.76-3.12a1.1 1.1 0 0 0-2.12.5l1.06 4.44-2.57 2.56c-2.08-2.8-1.32-6.34 2.2-9.85 3.54-3.54 11.05-4.52 13.98-4.77-.25 2.93-1.23 10.44-4.77 13.98z"/></svg>