<svg xmlns="http://www.w3.org/2000/svg" width="25" height="25" viewBox="0 0 25 25"><path d="M24.22 14.84h-.78V3.91c0-2.16-1.75-3.91-3.9-3.91H3.9A3.91 3.91 0 0 0 0 3.9v17.2C0 23.24 1.75 25 3.9 25h15.63c2.16 0 3.9-1.75 3.9-3.9v-1.57h.79c.43 0 .78-.35.78-.78v-3.13a.78.78 0 0 0-.78-.78zM1.56 3.91c0-1.3 1.05-2.35 2.35-2.35h15.62c1.3 0 2.35 1.05 2.35 2.35v6.27c-.47-.35-1-.61-1.58-.73l.01-.07V3.9a.78.78 0 0 0-.78-.79H4.7a3.9 3.9 0 0 0-3.13 1.6zM4.7 6.25c-1.02 0-1.88.65-2.2 1.56a2.35 2.35 0 0 1 2.2-3.13h14.06v1.57zm14.06 1.56v1.57H4.69a.78.78 0 0 1 0-1.57zm3.13 13.28c0 1.3-1.06 2.35-2.35 2.35H3.91a2.35 2.35 0 0 1-2.35-2.35V10.14c.66.5 1.46.8 2.35.8h15.62c1.3 0 2.34 1.05 2.34 2.34v1.56h-3.9a2.35 2.35 0 0 0 0 4.7h3.9zm1.56-3.12h-5.47a.78.78 0 0 1 0-1.56h5.47z"/></svg>