<svg xmlns="http://www.w3.org/2000/svg" viewBox="0 0 29.98888 30" height="30" width="29.989"><path d="M13.24 29.913c-3.411-.475-6.2-1.793-8.56-4.045C1.987 23.296.465 20.166.077 16.4c-.44-4.262 1.051-8.561 4.063-11.716C9.429-.858 17.856-1.568 24 3.013c2.2 1.639 4.072 4.12 5.03 6.666 1.327 3.526 1.273 7.555-.149 11.032-1.56 3.815-4.816 6.944-8.727 8.386-1.958.722-5.006 1.081-6.915.816zm3.228-2.506c2.832-.759 4.808-3.467 4.596-6.297-.118-1.57-.596-2.621-1.74-3.821l-.675-.71-.034-5.747-.034-5.747-.292-.571c-.372-.729-1.037-1.394-1.74-1.74-.444-.22-.743-.271-1.548-.271-.806 0-1.104.052-1.55.271-.702.346-1.367 1.011-1.739 1.74l-.292.571-.034 5.747-.033 5.747-.676.71c-1.143 1.2-1.622 2.25-1.74 3.82-.21 2.803 1.743 5.51 4.538 6.29.709.197 2.27.202 2.993.007zm-2.845-2.554c-.735-.283-1.541-1.05-1.927-1.833-.377-.765-.388-2.187-.023-2.981.336-.731 1-1.444 1.633-1.75l.52-.252V6.905h2.349v11.132l.52.252c.633.306 1.298 1.019 1.634 1.75.364.794.353 2.216-.023 2.981a3.719 3.719 0 0 1-4.683 1.833zm2.229-2.582c.427-.454.444-1.114.04-1.55-1.071-1.155-2.781.342-1.768 1.546.484.575 1.188.577 1.728.003zm-9.028 1.526c-.152-.524-.276-1.098-.276-1.275 0-.178-.033-.568-.075-.867L6.4 21.11h-1.17c-1.339 0-1.309-.053-.59 1.036.388.59 2.246 2.603 2.401 2.603.033 0-.064-.428-.216-.952zm17.442-.299c.678-.74 1.453-1.803 1.607-2.203.061-.161-.082-.185-1.1-.185h-1.17l-.075.545c-.041.3-.075.69-.075.867 0 .177-.123.748-.274 1.269l-.274.947.324-.231c.178-.127.645-.58 1.037-1.009zM7.332 17.845c.206-.437.64-1.136.967-1.553l.592-.758.003-2.084.002-2.084H2.925l-.214.91c-.298 1.272-.298 4.186 0 5.459l.214.91 2.017-.002 2.017-.002.373-.795zm19.958-.11c.298-1.273.298-4.187 0-5.46l-.214-.909h-5.971l.003 2.084.002 2.084.593.758c.326.417.76 1.116.966 1.553l.373.795 2.017.002 2.017.002.214-.91zM8.903 7.169c.005-1.285.062-1.943.222-2.553.119-.452.205-.834.192-.849-.014-.015-.523.296-1.133.69-1.247.806-2.755 2.253-3.497 3.355-.8 1.188-.963 1.089 1.79 1.089h2.42zm16.972 1.553c-.037-.098-.29-.507-.56-.91-.743-1.102-2.251-2.55-3.498-3.355-.61-.394-1.119-.705-1.132-.69-.013.015.073.397.191.849.16.61.218 1.268.223 2.553l.006 1.732h2.42c2.116 0 2.41-.023 2.35-.179z"/></svg>